<svg width="20" height="20" viewBox="0 0 20 20" fill="none" xmlns="http://www.w3.org/2000/svg">
<path d="M17.083 8.4915H14.6747C12.6997 8.4915 11.0913 6.88317 11.0913 4.90817V2.49984C11.0913 2.0415 10.7163 1.6665 10.258 1.6665H6.72467C4.15801 1.6665 2.08301 3.33317 2.08301 6.30817V13.6915C2.08301 16.6665 4.15801 18.3332 6.72467 18.3332H13.2747C15.8413 18.3332 17.9163 16.6665 17.9163 13.6915V9.32484C17.9163 8.8665 17.5413 8.4915 17.083 8.4915ZM9.60801 11.2748C9.48301 11.3998 9.32467 11.4582 9.16634 11.4582C9.00801 11.4582 8.84967 11.3998 8.72467 11.2748L8.12467 10.6748V14.1665C8.12467 14.5082 7.84134 14.7915 7.49967 14.7915C7.15801 14.7915 6.87467 14.5082 6.87467 14.1665V10.6748L6.27467 11.2748C6.03301 11.5165 5.63301 11.5165 5.39134 11.2748C5.14967 11.0332 5.14967 10.6332 5.39134 10.3915L7.05801 8.72484C7.11634 8.67484 7.17467 8.63317 7.24134 8.59984C7.25801 8.5915 7.28301 8.58317 7.29967 8.57484C7.34967 8.55817 7.39967 8.54984 7.45801 8.5415C7.48301 8.5415 7.49967 8.5415 7.52467 8.5415C7.59134 8.5415 7.65801 8.55817 7.72467 8.58317C7.73301 8.58317 7.73301 8.58317 7.74134 8.58317C7.80801 8.60817 7.87467 8.65817 7.92467 8.70817C7.93301 8.7165 7.94134 8.7165 7.94134 8.72484L9.60801 10.3915C9.84967 10.6332 9.84967 11.0332 9.60801 11.2748Z" fill="#778188"/>
<path d="M14.5251 7.34158C15.3167 7.34991 16.4167 7.34991 17.3584 7.34991C17.8334 7.34991 18.0834 6.79158 17.7501 6.45825C16.5501 5.24991 14.4001 3.07491 13.1667 1.84158C12.8251 1.49991 12.2334 1.73325 12.2334 2.20825V5.11658C12.2334 6.33325 13.2667 7.34158 14.5251 7.34158Z" fill="#778188"/>
</svg>
